<?xml version="1.0" encoding="UTF-8"?>
<svg version="1.1" xmlns="http://www.w3.org/2000/svg" width="796" height="796">
<path d="M0 0 C1.24910156 0.63615234 1.24910156 0.63615234 2.5234375 1.28515625 C9.16295343 4.95221197 14.54912155 9.77101572 20 15 C20.57363281 15.53367187 21.14726563 16.06734375 21.73828125 16.6171875 C22.87271644 17.69729762 23.94633132 18.84096446 25 20 C25 20.66 25 21.32 25 22 C25.5332489 22.20858643 26.0664978 22.41717285 26.61590576 22.63208008 C29.9496103 24.54485717 32.45821033 27.18017807 35.14550781 29.88671875 C35.75081329 30.48851959 36.35611877 31.09032043 36.97976685 31.71035767 C38.97594212 33.6977413 40.96472603 35.6923383 42.953125 37.6875 C44.33717068 39.07019865 45.72151315 40.45260027 47.10614014 41.8347168 C50.00436405 44.72999322 52.89894175 47.62885415 55.79101562 50.53027344 C59.50575673 54.25643009 63.22943177 57.97350887 66.95586014 61.68797302 C69.81438339 64.53928578 72.66814633 67.39532445 75.52046967 70.25283813 C76.89218914 71.62589524 78.26540538 72.99745867 79.64011383 74.36752319 C81.55563579 76.27799096 83.46467081 78.19470877 85.37207031 80.11328125 C85.94553192 80.6826944 86.51899353 81.25210754 87.10983276 81.83877563 C91 85.77146915 91 85.77146915 91 88 C91.54460876 88.21994629 92.08921753 88.43989258 92.65032959 88.66650391 C95.76379134 90.43347048 98.09408862 92.81542025 100.59472656 95.3359375 C101.14151062 95.87921692 101.68829468 96.42249634 102.25164795 96.98223877 C104.05302948 98.77483523 105.84701768 100.57462742 107.640625 102.375 C108.89014929 103.62317711 110.13997035 104.87105719 111.39007568 106.11865234 C114.00582968 108.73145977 116.61793646 111.34784601 119.22753906 113.96679688 C122.57907676 117.32975239 125.93954389 120.683619 129.30276871 124.03488159 C131.88335399 126.60825584 134.45917646 129.18635478 137.03356171 131.76593018 C138.27130915 133.00501499 139.5105528 134.24260703 140.75128937 135.47869873 C142.48001837 137.20237239 144.20224581 138.93228523 145.92285156 140.6640625 C146.44020874 141.17737122 146.95756592 141.69067993 147.49060059 142.21954346 C151 145.77146816 151 145.77146816 151 148 C151.53109375 148.20625 152.0621875 148.4125 152.609375 148.625 C156.00773436 150.57961192 158.51055928 153.22123717 161.25 156 C162.08144531 156.81984375 162.08144531 156.81984375 162.9296875 157.65625 C167 161.7466133 167 161.7466133 167 164 C167.58274059 164.25797867 168.16548119 164.51595734 168.76588058 164.78175354 C171.18909425 166.1031115 172.79534413 167.54370961 174.74591064 169.49194336 C175.47502655 170.21541962 176.20414246 170.93889587 176.95535278 171.68429565 C178.1400264 172.87504196 178.1400264 172.87504196 179.34863281 174.08984375 C180.18802399 174.92573029 181.02741516 175.76161682 181.89224243 176.62283325 C184.1891118 178.91241256 186.48142716 181.2064303 188.7714777 183.50282669 C191.16812411 185.90453879 193.56964874 188.301365 195.97039795 190.69897461 C199.99884478 194.72378487 204.02306027 198.75278977 208.04492188 202.78417969 C212.69913954 207.44929608 217.36053851 212.10714377 222.02570462 216.76130962 C226.02943421 220.75597516 230.02926803 224.7545101 234.0258472 228.75632954 C236.41363583 231.14724083 238.80276623 233.5367692 241.19541168 235.92282104 C243.85811266 238.58047081 246.51436472 241.24439888 249.16894531 243.91015625 C249.96682465 244.70398712 250.76470398 245.49781799 251.58676147 246.31570435 C252.30459808 247.0391806 253.02243469 247.76265686 253.76202393 248.50805664 C254.70552137 249.45268517 254.70552137 249.45268517 255.66807938 250.41639709 C257 252 257 252 257 254 C257.8971875 254.37125 257.8971875 254.37125 258.8125 254.75 C265.46568237 258.5518185 268.77037445 268.03242015 271 275 C274.7628432 288.89686408 272.81312492 301.91796003 266.375 314.8125 C263.42428643 319.86333878 259.63050486 323.73981012 255.3671875 327.7109375 C252.9138447 329.97767802 252.9138447 329.97767802 250.8203125 332.7890625 C250.21960938 333.51867187 249.61890625 334.24828125 249 335 C248.34 335 247.68 335 247 335 C247 335.66 247 336.32 247 337 C246.34 337 245.68 337 245 337 C244.74992188 337.58910156 244.49984375 338.17820312 244.2421875 338.78515625 C242.83561753 341.29309705 241.34445666 342.62424578 239.125 344.4375 C236.80883197 346.39254506 234.90017282 348.12478397 233 350.5 C231.18995472 352.7625566 229.45055399 354.39061717 227.25 356.25 C224.23199291 358.82089493 221.59171594 361.50013981 219 364.5 C215.85922823 368.13344185 212.53080332 371.22690926 208.8671875 374.3203125 C206.50695341 376.44353564 204.57348268 378.80184717 202.5625 381.25 C200.24376808 383.84697975 197.5880319 386.00106384 194.9375 388.25 C193.10650686 389.90380025 191.56392014 391.59609722 190 393.5 C187.35857495 396.70086897 184.43462197 399.2940384 181.28125 401.98046875 C175.65025108 406.96544553 169.99360014 412.35118124 165.3125 418.25 C162.82217928 421.21146247 160.12051163 423.57034358 157.18359375 426.07421875 C153.26987093 429.52585623 149.65853186 433.28235362 146 437 C144.33386404 438.6671972 142.66713869 440.33380549 141 442 C139.49206909 443.5110498 137.98445087 445.0224117 136.47711658 446.53405666 C135.59551265 447.4181274 134.71390871 448.30219813 133.8055895 449.21305889 C133.33506445 449.68492596 132.8645394 450.15679304 132.37975601 450.64295911 C129.75219055 453.27798044 127.12445563 455.91283277 124.49673462 458.54769897 C123.65012862 459.39661033 123.65012862 459.39661033 122.78641947 460.26267141 C96.79442279 486.32524335 70.79219513 512.37758322 44.78213413 538.42212718 C41.0233807 542.18588268 37.26471499 545.94972578 33.50610352 549.71362305 C32.75791921 550.4628566 32.00973489 551.21209015 31.23887833 551.98402775 C19.11562952 564.12469454 6.99946607 576.2724089 -5.1141124 588.42272358 C-17.55737497 600.90340599 -30.00823449 613.37647163 -42.46616203 625.84251601 C-50.14649332 633.52833004 -57.82086042 641.22000094 -65.48765389 648.91931976 C-70.74403127 654.19685796 -76.00777647 659.46697294 -81.2773396 664.73134511 C-84.31555621 667.76700299 -87.35045573 670.8057905 -90.37663269 673.85345459 C-93.15077781 676.64715269 -95.93412394 679.43133732 -98.72486184 682.20845742 C-99.7290567 683.21097084 -100.72992147 684.21683434 -101.7269462 685.22647893 C-113.57892657 697.21961878 -125.77905054 704.30970075 -142.875 704.5625 C-160.74043083 704.39925411 -173.13172819 696.24266998 -185.5211792 683.78543091 C-186.82227631 682.45401566 -186.82227631 682.45401566 -188.1496582 681.09570312 C-189.10634156 680.12831646 -190.06375671 679.16165305 -191.02183533 678.19564819 C-193.0617784 676.13625475 -195.09707449 674.07242087 -197.12883949 672.00495911 C-200.34346579 668.73490811 -203.57158745 665.47839868 -206.80204773 662.22399902 C-215.9782527 652.97572787 -225.13608962 643.70938986 -234.28149414 634.43066406 C-239.34914272 629.28937855 -244.4275146 624.15892912 -249.51761311 619.03986692 C-252.73067183 615.80720952 -255.92976077 612.56152361 -259.11907828 609.30544949 C-261.10160539 607.28774205 -263.09655298 605.28268371 -265.09523964 603.28099442 C-266.45920226 601.90751864 -267.80807957 600.51911348 -269.15646362 599.13034058 C-269.97340195 598.31731476 -270.79034027 597.50428894 -271.6320343 596.66662598 C-272.33490224 595.95433083 -273.03777018 595.24203568 -273.76193714 594.50815582 C-276.67749965 592.54345561 -278.5493941 592.68264029 -282 593 C-284.6188311 593.55458768 -284.6188311 593.55458768 -287.1875 594.375 C-292.76055051 595.9683688 -298.27108571 597.12585293 -304 598 C-305.19753906 598.18691406 -306.39507812 598.37382813 -307.62890625 598.56640625 C-343.47321721 603.70911276 -381.64526636 597.76400017 -414.14160156 581.89697266 C-415.88236907 581.05677562 -417.63994521 580.25165719 -419.3984375 579.44921875 C-436.01026751 571.64669253 -450.6260287 560.46751745 -464 548 C-464.56412598 547.47970215 -465.12825195 546.9594043 -465.70947266 546.42333984 C-475.1828766 537.60876434 -486.87173506 526.55378811 -491 514 C-491.66 514 -492.32 514 -493 514 C-497.20194801 508.43308799 -500.20600782 501.82464974 -503.375 495.625 C-503.91181396 494.59052734 -503.91181396 494.59052734 -504.45947266 493.53515625 C-506.21684 490.03241725 -507 487.99323159 -507 484 C-507.66 484 -508.32 484 -509 484 C-510.29418498 480.14667439 -511.58489426 476.29219309 -512.875 472.4375 C-513.23980469 471.35146484 -513.60460937 470.26542969 -513.98046875 469.14648438 C-517.9500864 457.27371887 -520.9615796 446.01661696 -521.75390625 433.46875 C-521.85204492 430.9990034 -521.85204492 430.9990034 -523 429 C-523.09918776 426.1181278 -523.1398131 423.26094163 -523.1328125 420.37890625 C-523.13376923 419.52320541 -523.13472595 418.66750458 -523.13571167 417.78587341 C-523.13639279 415.97435432 -523.13454324 414.16283278 -523.13037109 412.35131836 C-523.12502842 409.57725537 -523.13031499 406.80335477 -523.13671875 404.02929688 C-523.13605783 402.27083298 -523.13477637 400.51236918 -523.1328125 398.75390625 C-523.13483673 397.92258682 -523.13686096 397.0912674 -523.13894653 396.23475647 C-523.12538816 392.90500551 -523.06028198 390.18084594 -522 387 C-521.69760965 384.13569136 -521.49234231 381.27080066 -521.28125 378.3984375 C-521 376 -521 376 -520 375 C-519.70371079 373.38213303 -519.41319054 371.7630004 -519.15161133 370.13916016 C-514.01903772 338.70815142 -497.89627964 307.00841817 -475.8984375 284.0390625 C-473.95370709 282.14255278 -473.95370709 282.14255278 -473 280 C-472.34 280 -471.68 280 -471 280 C-470.34 278.68 -469.68 277.36 -469 276 C-468.34 276 -467.68 276 -467 276 C-466.7525 275.38125 -466.505 274.7625 -466.25 274.125 C-464.79371361 271.64931313 -463.62187494 271.04874998 -461 270 C-461 269.34 -461 268.68 -461 268 C-458.8828125 266.0546875 -458.8828125 266.0546875 -456.125 263.875 C-455.22007812 263.15054687 -454.31515625 262.42609375 -453.3828125 261.6796875 C-451 260 -451 260 -449 260 C-449 259.34 -449 258.68 -449 258 C-446.90851602 256.395912 -444.82864878 254.93704278 -442.625 253.5 C-441.95307617 253.05930176 -441.28115234 252.61860352 -440.58886719 252.16455078 C-424.49797427 241.76343895 -407.10271704 232.09417262 -388.34375 227.578125 C-385.96182975 226.99058467 -383.69031198 226.24627336 -381.375 225.4375 C-374.10246202 222.97463696 -367.03960651 221.78054233 -359.3828125 221.24609375 C-356.85450204 221.0721086 -356.85450204 221.0721086 -354 220 C-350.99604257 219.89019139 -348.01608654 219.83592203 -345.01171875 219.83203125 C-344.11693314 219.82870285 -343.22214752 219.82537445 -342.30024719 219.82194519 C-340.39963291 219.81687777 -338.49900971 219.81453681 -336.59838867 219.81469727 C-333.73665905 219.81253711 -330.87533191 219.7944535 -328.01367188 219.77539062 C-313.40071338 219.73060154 -299.46425926 220.93288953 -285.375 225.0625 C-281.86628426 226.03714326 -278.64022943 226.78998676 -275 227 C-273.1645201 225.66621425 -273.1645201 225.66621425 -272 224 C-271.34 224 -270.68 224 -270 224 C-269.67 223.01 -269.34 222.02 -269 221 C-268.34 221 -267.68 221 -267 221 C-266.731875 220.360625 -266.46375 219.72125 -266.1875 219.0625 C-265 217 -265 217 -262 216 C-261.731875 215.443125 -261.46375 214.88625 -261.1875 214.3125 C-259.467157 210.96235837 -256.91424712 208.37574493 -254 206 C-253.34 206 -252.68 206 -252 206 C-251.7525 205.42765625 -251.505 204.8553125 -251.25 204.265625 C-249.80683801 201.64989389 -248.11783778 199.85226544 -246 197.75 C-245.29875 197.04359375 -244.5975 196.3371875 -243.875 195.609375 C-242 194 -242 194 -240 194 C-239.67 193.01 -239.34 192.02 -239 191 C-237.38161281 189.28641357 -235.70328319 187.6292274 -234 186 C-233.40058594 185.37996094 -232.80117188 184.75992188 -232.18359375 184.12109375 C-231.56613281 183.48300781 -230.94867188 182.84492188 -230.3125 182.1875 C-229.73113281 181.58292969 -229.14976562 180.97835937 -228.55078125 180.35546875 C-227 179 -227 179 -225 179 C-224.7421875 178.41734375 -224.484375 177.8346875 -224.21875 177.234375 C-222.90165983 174.8197097 -221.44911616 173.18259823 -219.5 171.25 C-218.8915625 170.63640625 -218.283125 170.0228125 -217.65625 169.390625 C-216 168 -216 168 -214 168 C-213.34 166.68 -212.68 165.36 -212 164 C-211.34 164 -210.68 164 -210 164 C-209.731875 163.401875 -209.46375 162.80375 -209.1875 162.1875 C-208.00082594 160.00152146 -206.90400887 158.58667406 -205 157 C-204.34 157 -203.68 157 -203 157 C-202.67 156.01 -202.34 155.02 -202 154 C-200.3777546 152.29006566 -198.70586575 150.62652316 -197 149 C-195.9171875 147.8553125 -195.9171875 147.8553125 -194.8125 146.6875 C-193 145 -193 145 -191 145 C-190.7421875 144.41734375 -190.484375 143.8346875 -190.21875 143.234375 C-188.90165983 140.8197097 -187.44911616 139.18259823 -185.5 137.25 C-184.8915625 136.63640625 -184.283125 136.0228125 -183.65625 135.390625 C-182 134 -182 134 -180 134 C-179.7525 133.38125 -179.505 132.7625 -179.25 132.125 C-177.76259631 129.59641373 -176.56321991 129.28160996 -174 128 C-172.73195434 125.9664052 -172.73195434 125.9664052 -172 124 C-171.34 124 -170.68 124 -170 124 C-169.34 122.68 -168.68 121.36 -168 120 C-167.34 120 -166.68 120 -166 120 C-165.34 118.68 -164.68 117.36 -164 116 C-163.34 116 -162.68 116 -162 116 C-161.34 114.68 -160.68 113.36 -160 112 C-159.34 112 -158.68 112 -158 112 C-157.67 111.01 -157.34 110.02 -157 109 C-156.34 109 -155.68 109 -155 109 C-154.67 108.01 -154.34 107.02 -154 106 C-153.34 106 -152.68 106 -152 106 C-152 105.34 -152 104.68 -152 104 C-151.34 104 -150.68 104 -150 104 C-149.67 103.01 -149.34 102.02 -149 101 C-148.34 101 -147.68 101 -147 101 C-146.5978125 100.1028125 -146.5978125 100.1028125 -146.1875 99.1875 C-145.00082594 97.00152146 -143.90400887 95.58667406 -142 94 C-141.34 94 -140.68 94 -140 94 C-139.6596875 93.1646875 -139.6596875 93.1646875 -139.3125 92.3125 C-137.62449964 89.33840412 -135.53323483 87.27991135 -133 85 C-132.34 85 -131.68 85 -131 85 C-130.6596875 84.1646875 -130.6596875 84.1646875 -130.3125 83.3125 C-129.00768047 81.01353225 -127.53917738 79.38535451 -125.6328125 77.5703125 C-124.31088424 76.29898437 -123.02123854 74.99414479 -121.7421875 73.6796875 C-120.94039063 72.85726562 -120.13859375 72.03484375 -119.3125 71.1875 C-118.54550781 70.39730469 -117.77851563 69.60710937 -116.98828125 68.79296875 C-115 67 -115 67 -113 67 C-112.67 66.01 -112.34 65.02 -112 64 C-111.34 64 -110.68 64 -110 64 C-109.62875 63.14148438 -109.62875 63.14148438 -109.25 62.265625 C-107.80683801 59.64989389 -106.11783778 57.85226544 -104 55.75 C-103.29875 55.04359375 -102.5975 54.3371875 -101.875 53.609375 C-100 52 -100 52 -98 52 C-97.67 51.01 -97.34 50.02 -97 49 C-96.34 49 -95.68 49 -95 49 C-94.62875 48.14148438 -94.62875 48.14148438 -94.25 47.265625 C-92.80683801 44.64989389 -91.11783778 42.85226544 -89 40.75 C-88.29875 40.04359375 -87.5975 39.3371875 -86.875 38.609375 C-85 37 -85 37 -83 37 C-82.67 36.01 -82.34 35.02 -82 34 C-81.34 34 -80.68 34 -80 34 C-79.62875 33.071875 -79.62875 33.071875 -79.25 32.125 C-77.76259631 29.59641373 -76.56321991 29.28160996 -74 28 C-73.67 27.34 -73.34 26.68 -73 26 C-71.73577236 23.47154472 -70.47154472 23.23577236 -68 22 C-66.90833725 20.06669397 -66.90833725 20.06669397 -66 18 C-64.5 16.25 -64.5 16.25 -63 15 C-62.34 15 -61.68 15 -61 15 C-60.67 14.01 -60.34 13.02 -60 12 C-59.34 12 -58.68 12 -58 12 C-58 11.34 -58 10.68 -58 10 C-56.20703125 8.37890625 -56.20703125 8.37890625 -53.8125 6.5625 C-53.03519531 5.96566406 -52.25789063 5.36882813 -51.45703125 4.75390625 C-37.14371396 -5.46339019 -15.93760604 -8.55513635 0 0 Z M-349.25 242.875 C-350.58611328 242.99294922 -350.58611328 242.99294922 -351.94921875 243.11328125 C-360.41587182 243.91202211 -368.51799343 245.32868824 -376.546875 248.1640625 C-379.36086199 249.1229689 -382.20592887 249.92680093 -385.0625 250.75 C-403.88502246 256.54154537 -420.26271202 266.35284874 -436 278 C-436.8765625 278.62648438 -437.753125 279.25296875 -438.65625 279.8984375 C-439.3884375 280.42695313 -440.120625 280.95546875 -440.875 281.5 C-441.49117187 281.9434375 -442.10734375 282.386875 -442.7421875 282.84375 C-443.15726563 283.2253125 -443.57234375 283.606875 -444 284 C-444 284.66 -444 285.32 -444 286 C-444.57363281 286.24878906 -445.14726562 286.49757813 -445.73828125 286.75390625 C-456.83493516 292.86760677 -466.53038723 307.36986456 -473 318 C-473 318.66 -473 319.32 -473 320 C-473.66 320 -474.32 320 -475 320 C-475.44730469 320.90621094 -475.89460938 321.81242187 -476.35546875 322.74609375 C-476.96572377 323.97677188 -477.57643306 325.20722481 -478.1875 326.4375 C-478.50775146 327.08348145 -478.82800293 327.72946289 -479.15795898 328.39501953 C-480.85533884 331.79488031 -482.6148979 335.10990236 -484.5625 338.375 C-490.90635655 349.66456051 -494.23435951 362.44105285 -497 375 C-497.21527344 375.96421875 -497.43054688 376.9284375 -497.65234375 377.921875 C-502.08163158 399.77733905 -501.67682044 425.49938537 -496 447 C-495.78472656 447.94875 -495.56945312 448.8975 -495.34765625 449.875 C-492.09081587 464.05863623 -486.91105562 476.88985009 -479.85546875 489.5859375 C-478 493 -478 493 -477 496 C-476.34 496 -475.68 496 -475 496 C-474.76023437 496.6909375 -474.52046875 497.381875 -474.2734375 498.09375 C-472.76829782 501.5287927 -470.80411703 504.47028879 -468.625 507.5 C-467.97168701 508.41096436 -467.97168701 508.41096436 -467.30517578 509.34033203 C-462.76897304 515.52577192 -457.6702404 521.11198019 -452.33837891 526.61474609 C-451.18428424 527.80926144 -450.04923142 529.02212082 -448.91796875 530.23828125 C-432.68095383 547.29569271 -410.82856916 558.94111258 -389 567 C-388.32839844 567.27585937 -387.65679687 567.55171875 -386.96484375 567.8359375 C-379.93642702 570.70909247 -372.4089466 572.41072911 -365 574 C-364.17298584 574.18240234 -363.34597168 574.36480469 -362.49389648 574.55273438 C-352.89384241 576.42460654 -343.30504653 576.39531061 -333.5625 576.375 C-332.23064667 576.37518127 -332.23064667 576.37518127 -330.87188721 576.37536621 C-317.51090936 576.34944305 -304.94162498 575.54028106 -292 572 C-290.67786385 571.68163679 -289.35496468 571.36642231 -288.03125 571.0546875 C-275.62204748 567.89935609 -264.86831545 562.61094852 -257.50390625 551.8046875 C-251.8948317 542.25095221 -249.22436074 532.6304327 -251.50390625 521.55078125 C-254.98124203 510.16499038 -261.19249772 501.2881107 -271.5 495.296875 C-284.11873226 488.75090764 -294.93346769 490.14772879 -308 494 C-329.93390158 500.21890621 -354.26663974 498.47436537 -374.5078125 487.66015625 C-380.40680758 484.2596652 -385.73744133 480.30662573 -391 476 C-391.60585938 475.52949219 -392.21171875 475.05898438 -392.8359375 474.57421875 C-400.72964002 468.23425405 -406.54734752 460.02605485 -411 451 C-411.64775391 449.71996094 -411.64775391 449.71996094 -412.30859375 448.4140625 C-415.1275565 442.57538001 -416.99122318 436.85273477 -418.421875 430.53125 C-418.98050892 427.8967166 -418.98050892 427.8967166 -420 425 C-421.43334899 401.12534834 -419.8510567 379.07538228 -405.24609375 359.15625 C-402.80673116 356.37405989 -402.80673116 356.37405989 -403 354 C-402.34 354 -401.68 354 -401 354 C-399.50174677 352.47970115 -399.50174677 352.47970115 -397.9375 350.5 C-387.23134437 338.0677499 -373.69040759 329.77073204 -358 325 C-356.824375 324.608125 -355.64875 324.21625 -354.4375 323.8125 C-337.10651656 319.71608573 -318.74457303 321.55508639 -302 327 C-301.10023438 327.28746094 -300.20046875 327.57492187 -299.2734375 327.87109375 C-293.14951408 330.05820926 -288.36813009 333.40662601 -283.25 337.390625 C-281.18993797 339.19392412 -281.18993797 339.19392412 -279 339 C-279 339.66 -279 340.32 -279 341 C-277.34262726 342.59848062 -277.34262726 342.59848062 -275.25 344.25 C-272.60301824 346.48076025 -270.45647025 348.49456498 -268.625 351.4375 C-267.820625 352.7059375 -267.820625 352.7059375 -267 354 C-266.34 354 -265.68 354 -265 354 C-264.76410156 354.52207031 -264.52820313 355.04414063 -264.28515625 355.58203125 C-262.93355783 358.12500822 -261.36291041 360.45350637 -259.72607422 362.82006836 C-251.58347767 374.62050811 -245.29318458 387.30279626 -238.9465332 400.12744141 C-236.74006565 404.57317019 -234.4300008 408.95079245 -232.0625 413.3125 C-229.0526821 418.87214893 -226.2970484 424.52093721 -223.625 430.25 C-219.91028023 438.19908651 -215.92809952 445.96744813 -211.8046875 453.7109375 C-208.46329485 459.98848491 -205.20335796 466.30792503 -201.9375 472.625 C-198.06782895 480.10947221 -194.17130636 487.57571485 -190.1875 495 C-186.71615637 501.48597325 -183.55844313 508.09340833 -180.45068359 514.76000977 C-176.96136487 522.19625034 -173.14391704 529.44007629 -169.28125 536.6875 C-167.39071368 540.23922889 -165.58183783 543.82353337 -163.8125 547.4375 C-157.09746878 560.98169895 -150.07449393 573.83756946 -135.16015625 579.30078125 C-123.30024517 581.92491485 -111.6744113 580.90870317 -101 575 C-100.34 574.67 -99.68 574.34 -99 574 C-99 573.34 -99 572.68 -99 572 C-98.39671875 571.72542969 -97.7934375 571.45085937 -97.171875 571.16796875 C-88.91283346 566.72650576 -85.04221436 556.01674513 -81 548 C-80.64583008 547.30003906 -80.29166016 546.60007812 -79.92675781 545.87890625 C-77.91596974 541.89750933 -75.91920302 537.9094597 -73.95117188 533.90673828 C-73.2738776 532.54902055 -72.58071659 531.19916869 -71.87695312 529.85498047 C-71.51021484 529.14873535 -71.14347656 528.44249023 -70.765625 527.71484375 C-70.25950684 526.7556604 -70.25950684 526.7556604 -69.74316406 525.77709961 C-68.80709399 523.85975022 -68.80709399 523.85975022 -69 521 C-68.34 521 -67.68 521 -67 521 C-66.38511719 519.51886719 -66.38511719 519.51886719 -65.7578125 518.0078125 C-63.67500697 513.14466962 -61.23028993 508.47385345 -58.78515625 503.78515625 C-56.95416993 500.19861749 -55.51989361 497.04886841 -55 493 C-54.34 493 -53.68 493 -53 493 C-53 491.68 -53 490.36 -53 489 C-52.34 489 -51.68 489 -51 489 C-50.71390869 488.3922876 -50.42781738 487.7845752 -50.13305664 487.15844727 C-45.05390146 476.39274741 -39.93146125 465.68531046 -34.2734375 455.21069336 C-31.52825161 450.09216727 -29.0148068 444.88944257 -26.5625 439.625 C-22.71451776 431.36622674 -18.5546259 423.30472395 -14.26171875 415.26953125 C-12.09995563 411.21548193 -10.03393246 407.119403 -8 403 C-3.95875465 394.83679202 0.12868698 386.71342614 4.4375 378.6875 C7.64335822 372.70520728 10.63116986 366.65070195 13.5 360.5 C16.36885205 354.34925108 19.35733692 348.2951952 22.5625 342.3125 C25.61615099 336.60976156 28.63613048 330.8943536 31.5625 325.125 C31.90933838 324.45251221 32.25617676 323.78002441 32.61352539 323.0871582 C34.0717598 320.19198566 35 318.28837318 35 315 C35.66 315 36.32 315 37 315 C38.29935464 312.48287811 39.58954372 309.96170913 40.875 307.4375 C41.23980469 306.73302734 41.60460937 306.02855469 41.98046875 305.30273438 C47.50425534 294.40580992 49.14519323 282.38742933 46.08984375 270.44140625 C42.17701172 260.56496528 36.64615067 252.85063577 27 248 C26.01 248 25.02 248 24 248 C24 247.34 24 246.68 24 246 C14.27096743 242.79559642 2.42435659 241.96554636 -7.125 246.125 C-8.7803112 247.02997105 -10.40884067 247.98647162 -12 249 C-12.73605469 249.45761719 -13.47210938 249.91523438 -14.23046875 250.38671875 C-23.1241616 256.47714631 -27.2804122 265.21295098 -31.8671875 274.6640625 C-33.948824 278.94073951 -36.18100096 283.12619714 -38.4375 287.3125 C-42.19845079 294.32165617 -45.65495889 301.45000276 -48.99389648 308.66918945 C-50.46811303 311.84325062 -51.9223472 314.87368477 -53.7578125 317.859375 C-55.25095352 320.01997155 -55.25095352 320.01997155 -55 323 C-55.66 323 -56.32 323 -57 323 C-57.42539062 324.01449219 -57.85078125 325.02898437 -58.2890625 326.07421875 C-59.85356604 329.72319858 -61.58458933 333.26813498 -63.375 336.8125 C-63.99870462 338.05077787 -64.62240251 339.28905914 -65.24609375 340.52734375 C-66.11427734 342.24630859 -66.11427734 342.24630859 -67 344 C-67.81348889 345.62450518 -68.62610039 347.24945027 -69.4375 348.875 C-70.89322917 351.78645833 -72.34895833 354.69791667 -73.8046875 357.609375 C-74.29291992 358.58596069 -74.29291992 358.58596069 -74.79101562 359.58227539 C-75.47695362 360.95398743 -76.16315528 362.32556765 -76.84960938 363.69702148 C-78.56471597 367.12444004 -80.2758116 370.55371401 -81.9765625 373.98828125 C-85.393277 380.87622777 -88.88288078 387.71490588 -92.5 394.5 C-98.88805646 406.4951536 -104.85650148 418.65764652 -110.62475586 430.96166992 C-114.16064464 438.44839284 -118.01857915 445.74231458 -122 453 C-124.48340535 451.75829732 -124.68489069 450.90739861 -125.8125 448.4140625 C-126.33517456 447.27880127 -126.33517456 447.27880127 -126.8684082 446.12060547 C-127.2418335 445.29705566 -127.61525879 444.47350586 -128 443.625 C-131.61308964 435.80892853 -135.45899057 428.16165589 -139.54882812 420.58447266 C-142.28275554 415.48809975 -144.72134491 410.31555636 -147 405 C-147.66 405 -148.32 405 -149 405 C-149.12673096 404.42507813 -149.25346191 403.85015625 -149.3840332 403.2578125 C-150.00759449 400.97216258 -150.83545678 399.01108882 -151.85546875 396.875 C-152.22808838 396.0910083 -152.60070801 395.3070166 -152.98461914 394.49926758 C-153.38156982 393.67450928 -153.77852051 392.84975098 -154.1875 392 C-154.59025146 391.15655029 -154.99300293 390.31310059 -155.40795898 389.4440918 C-158.53037772 382.92479017 -161.72105927 376.44215414 -165 370 C-165.66 370 -166.32 370 -167 370 C-167.12818115 369.42362793 -167.2563623 368.84725586 -167.38842773 368.25341797 C-168.45094087 364.33844943 -170.32150004 360.77782723 -172.0625 357.125 C-172.46734619 356.27510498 -172.87219238 355.42520996 -173.28930664 354.54956055 C-176.85441955 347.15398837 -180.73460384 340.01842914 -185 333 C-185.41459473 332.31711914 -185.82918945 331.63423828 -186.25634766 330.93066406 C-187.57983939 328.76140505 -188.91223099 326.59798093 -190.25 324.4375 C-190.66241943 323.77016846 -191.07483887 323.10283691 -191.49975586 322.4152832 C-193.8016572 318.74410316 -196.23262564 315.34413116 -199 312 C-199.87671767 310.88909527 -200.75018786 309.77562303 -201.62109375 308.66015625 C-202.08193359 308.07169922 -202.54277344 307.48324219 -203.01757812 306.87695312 C-203.96081332 305.67163607 -204.90352562 304.46590964 -205.84570312 303.25976562 C-211.8481917 295.43589985 -211.8481917 295.43589985 -218.875 288.5625 C-221.47334762 286.3935864 -223.85588475 284.12438118 -226.203125 281.69140625 C-230.10071941 277.7652066 -234.37163786 274.57093442 -238.875 271.375 C-240.00228516 270.55515625 -240.00228516 270.55515625 -241.15234375 269.71875 C-249.84777279 262.92221555 -249.84777279 262.92221555 -260 260 C-260 259.34 -260 258.68 -260 258 C-269.56375458 254.31691094 -279.10490095 250.70789484 -289 248 C-289.62471191 247.82726562 -290.24942383 247.65453125 -290.89306641 247.4765625 C-309.76131068 242.3947031 -329.83104045 241.0242599 -349.25 242.875 Z " fill="#003575" transform="translate(523,48)"/>
<path d="M0 0 C25.43093811 22.54017095 42.53902893 50.6749738 57.48095703 80.8359375 C59.73552154 85.37370289 62.0769641 89.85593788 64.48046875 94.31640625 C68.65057382 102.06695565 72.57298395 109.93100131 76.48046875 117.81640625 C81.95495973 128.85321427 87.44910597 139.86794553 93.25952148 150.73242188 C97.14764181 158.02011213 100.82039605 165.41222857 104.48046875 172.81640625 C104.81046875 173.47640625 105.14046875 174.13640625 105.48046875 174.81640625 C106.47046875 174.81640625 107.46046875 174.81640625 108.48046875 174.81640625 C109.01414062 173.7490625 109.5478125 172.68171875 110.09765625 171.58203125 C113.40625 164.96484375 116.71484375 158.34765625 120.0234375 151.73046875 C120.4397644 150.89777466 120.85609131 150.06508057 121.28503418 149.20715332 C122.12515468 147.52699384 122.9654058 145.84689966 123.80578613 144.16687012 C125.78436752 140.21105897 127.76117667 136.25439451 129.73242188 132.29492188 C133.0709324 125.59302939 136.42938857 118.90892484 139.98046875 112.31640625 C145.73745179 101.51847663 151.20397801 90.60337758 156.35546875 79.50390625 C160.73149978 70.09792961 165.58967426 60.96240317 170.48046875 51.81640625 C175.96302919 41.54025225 181.33324217 31.22541864 186.50097656 20.78710938 C187.47390306 18.82961617 188.455986 16.8770114 189.44140625 14.92578125 C190.10039982 13.61855985 190.75925338 12.31126786 191.41796875 11.00390625 C191.74474609 10.35663574 192.07152344 9.70936523 192.40820312 9.04248047 C194.25420022 5.35858275 196.02807057 1.65137092 197.73828125 -2.09765625 C204.18646905 -16.20024642 211.18381441 -29.33487297 226.48046875 -35.18359375 C236.48466034 -37.65194821 247.9391778 -37.04557193 256.921875 -31.7421875 C264.51865853 -26.20206279 270.72408082 -19.25060337 273.046875 -9.98828125 C275.53607087 6.11300375 269.93186578 17.38384536 262.85546875 31.31640625 C262.12726632 32.76089744 261.39940352 34.2055599 260.671875 35.65039062 C256.67665074 43.56825979 252.62439266 51.45297716 248.43334961 59.26928711 C245.3558563 65.01052432 242.43636588 70.82402849 239.54321289 76.65991211 C237.68670695 80.40366832 235.81992351 84.14222784 233.94921875 87.87890625 C231.10186161 93.56949238 228.26016329 99.26287092 225.42237854 104.95823669 C223.46441859 108.8871001 221.5046183 112.81504426 219.54467773 116.74291992 C218.54461004 118.74809547 217.54525942 120.75362882 216.54663086 122.75952148 C211.28469065 133.32737354 205.97752454 143.85814982 200.41369629 154.27064514 C198.18834896 158.44503119 196.05147877 162.64123382 194.07662964 166.94145203 C190.9114669 173.8310145 187.59194802 180.60216682 184.01171875 187.28515625 C177.58710369 199.38993609 171.51664826 211.67021973 165.41796875 223.94140625 C152.18437714 250.56828229 152.18437714 250.56828229 146.30735779 261.50186157 C144.17965019 265.46065581 142.1740163 269.45296746 140.23046875 273.50390625 C135.56127602 282.82956911 129.04666758 288.80634111 119.23046875 292.62890625 C109.78225054 295.62084202 101.78372336 295.30185093 92.48046875 291.81640625 C89.21525079 290.10605398 86.36085492 288.10974228 83.48046875 285.81640625 C82.87589844 285.36007812 82.27132813 284.90375 81.6484375 284.43359375 C75.65050077 279.26155801 72.81575249 271.92455765 69.49658203 264.9140625 C67.92130718 261.66207752 66.20385054 258.49165511 64.48046875 255.31640625 C60.78194146 248.44326523 57.2751415 241.4830063 53.80761719 234.49121094 C50.89301915 228.61697692 47.97045771 222.74672481 45.04296875 216.87890625 C44.71447937 216.2204068 44.38598999 215.56190735 44.04754639 214.88345337 C39.95592125 206.6879859 35.80836057 198.52956453 31.47851562 190.45678711 C28.74002773 185.34420689 26.14155736 180.17062734 23.56860352 174.97314453 C20.95292248 169.71083529 18.23132177 164.50915669 15.48046875 159.31640625 C12.06897408 152.87599029 8.74743392 146.40147979 5.51733398 139.8684082 C2.54390409 133.88073519 -0.59888392 127.98771233 -3.74487305 122.08935547 C-6.23448885 117.38121852 -8.55884528 112.63256588 -10.76342773 107.78491211 C-18.42367773 90.9855656 -27.91860291 75.35984305 -40.51953125 61.81640625 C-41.09574219 61.16027344 -41.67195312 60.50414062 -42.265625 59.828125 C-54.62000591 46.42624047 -70.07181113 40.66478565 -87.51953125 36.81640625 C-88.2465625 36.63207031 -88.97359375 36.44773437 -89.72265625 36.2578125 C-111.68736466 32.79131522 -135.65591368 37.7029561 -154.140625 50.16015625 C-158.99585955 53.72581198 -163.29342546 57.52774298 -167.51953125 61.81640625 C-168.06996094 62.30882812 -168.62039062 62.80125 -169.1875 63.30859375 C-185.24421848 77.92062034 -193.68157192 100.41522864 -194.8671875 121.7265625 C-195.1707623 131.76974468 -194.00594313 141.06827745 -191.51953125 150.81640625 C-191.22949219 152.11384766 -191.22949219 152.11384766 -190.93359375 153.4375 C-188.01524697 164.97823498 -181.24378771 175.89870244 -173.51953125 184.81640625 C-172.87757813 185.61304688 -172.235625 186.4096875 -171.57421875 187.23046875 C-156.96247841 204.64593786 -134.63219598 214.81279273 -112.3125 217.5625 C-97.85083989 218.53058229 -84.72911367 215.98104133 -70.953125 211.7109375 C-61.48201197 209.24349167 -52.18437413 210.34550559 -43.51953125 214.81640625 C-35.18606459 220.01659477 -28.42676317 227.26638013 -25.51953125 236.81640625 C-23.82620397 248.19190166 -24.56354866 259.35805734 -31.51953125 268.81640625 C-40.53562034 280.50392915 -54.79191993 283.59459085 -68.51953125 286.81640625 C-69.23544434 286.98446777 -69.95135742 287.1525293 -70.68896484 287.32568359 C-81.47838264 289.71974848 -92.25172715 290.09901458 -103.26953125 290.12890625 C-105.187052 290.13724487 -105.187052 290.13724487 -107.14331055 290.14575195 C-119.65100494 290.05168496 -131.86690963 288.52102511 -144.01953125 285.56640625 C-144.91115967 285.35024658 -145.80278809 285.13408691 -146.72143555 284.91137695 C-187.63298246 274.59615097 -222.80469002 246.54469557 -244.51953125 210.81640625 C-267.15477512 172.08297694 -273.26651022 127.78992284 -262.33203125 84.31640625 C-254.39335726 54.86697909 -239.3249611 30.06272251 -217.51953125 8.81640625 C-216.98457031 8.24792969 -216.44960937 7.67945313 -215.8984375 7.09375 C-196.26538363 -13.43728139 -169.52374355 -25.63965759 -142.51953125 -33.18359375 C-141.33423828 -33.51810547 -141.33423828 -33.51810547 -140.125 -33.859375 C-137.92893309 -34.40944147 -135.75444172 -34.81935992 -133.51953125 -35.18359375 C-132.39546875 -35.36792969 -131.27140625 -35.55226563 -130.11328125 -35.7421875 C-83.37882131 -42.63331202 -35.8224397 -31.04611441 0 0 Z " fill="#FDFEFE" transform="translate(293.51953125,331.18359375)"/>
</svg>
